<svg xmlns="http://www.w3.org/2000/svg" viewBox="0 0 16 16">
  <defs>
    <style>
      .cls-1 {
        fill: #000000;
      }
    </style>
  </defs>
  <title>njsuzukiworkshopFavicon</title>
  <path d="M5.37724,11.29329a1.34654,1.34654,0,0,0,.0528-.18477,1.04484,1.04484,0,0,0,.01981-.2765,1.21137,1.21137,0,0,0-.01327-.25059A1.62718,1.62718,0,0,0,4.19782,9.24358a.4889.4889,0,0,0-.13189-.02627l-.01981-.00646.01327.03953c.07907.29667.21733,1.00819.28994,1.42994.07244.448.14489,1.07434.17133,1.404a.86525.86525,0,0,0,.01309.1118,1.241,1.241,0,0,0,.27685-.14522,1.55427,1.55427,0,0,0,.56663-.7576" transform="translate(0)"/>
  <path d="M4.53213,4.30923l-.01827.05158A7.10064,7.10064,0,0,1,3.38043,6.25219l-.14506.19105.04617.11862c.19114.59953.38221,1.21905.48773,1.58161l.0329.14507L3.9406,8.295a2.127,2.127,0,0,1,.84348.2175A2.219,2.219,0,0,1,5.92424,9.9557a2.15092,2.15092,0,0,1-.3953,1.91128,2.17484,2.17484,0,0,1-.88966.66551l-.08571.03274v.1482H16V4.30923Zm7.59542.60571a1.62889,1.62889,0,0,0-.24886.0969.3873.3873,0,0,0-.12333.10572.487.487,0,0,0-.07709.20041,2.33185,2.33185,0,0,0-.02642.41185v4.90689H10.533L8.5509,7.20981Q8.15,6.51389,7.96065,6.11744H7.921q.044.94709.04405,1.99976V9.53552a2.18894,2.18894,0,0,0,.033.4625.4041.4041,0,0,0,.11893.20923.81723.81723,0,0,0,.32375.13874v.29071h-1.665V10.346a1.1632,1.1632,0,0,0,.25768-.0969.3396.3396,0,0,0,.141-.14315.631.631,0,0,0,.05946-.22684q.01322-.13648.01321-.34357V5.72541a2.40343,2.40343,0,0,0-.02863-.45589.3998.3998,0,0,0-.11892-.20923.78838.78838,0,0,0-.32375-.14535V4.62422H8.55971L10.119,7.33314q.14537.25551.37881.69155t.414.82369h.07047q-.04852-1.05271-.04845-2.29928V5.72982a2.73382,2.73382,0,0,0-.022-.414.48642.48642,0,0,0-.06827-.19381.375.375,0,0,0-.12334-.11012,1.30813,1.30813,0,0,0-.25767-.0969V4.62422h1.665Zm3.0613,0a.94174.94174,0,0,0-.27089.10571.37563.37563,0,0,0-.12773.13655.62369.62369,0,0,0-.05947.20261,2.88972,2.88972,0,0,0-.01762.3744v4.41356a3.32587,3.32587,0,0,1-.07267.77083,1.43556,1.43556,0,0,1-.24446.52417,1.91039,1.91039,0,0,1-.54179.48893,4.18316,4.18316,0,0,1-.98666.43167l-.22023-.54179a1.82263,1.82263,0,0,0,.39863-.22463.68926.68926,0,0,0,.1894-.22685,1.02755,1.02755,0,0,0,.08589-.30392,3.98829,3.98829,0,0,0,.02643-.53077V5.73422q0-.207-.011-.348a.59493.59493,0,0,0-.05726-.229.35721.35721,0,0,0-.141-.14315,1.08364,1.08364,0,0,0-.26208-.09911V4.62422h2.31249Z" transform="translate(0)"/>
  <path d="M2.95895,8.45944a2.78059,2.78059,0,0,1,.3953-.13161.35621.35621,0,0,0,.07908-.01327c.00663-.01336-.178-.65906-.37558-1.25214l-.09225-.2703c-.01318,0-.50736.64579-.68533.8962A4.90685,4.90685,0,0,0,1.25207,10.0079a3.50493,3.50493,0,0,0-.00645.521,1.75408,1.75408,0,0,0,.52708,1.06745,2.59446,2.59446,0,0,0,.65243.46128,2.568,2.568,0,0,0,1.41029.27686,2.07007,2.07007,0,0,0,.3362-.03954,6.92434,6.92434,0,0,0-.07907-.883,14.0884,14.0884,0,0,0-.33621-1.85848c-.046-.23086-.0789-.34948-.0789-.34948A.72459.72459,0,0,0,3.4204,9.237a1.05352,1.05352,0,0,0-.837.71833,1.10747,1.10747,0,0,0,.62615,1.27169c.112.06615.13843.09243.14489.165a.206.206,0,0,1-.08553.1647.12941.12941,0,0,1-.09244.01982.30547.30547,0,0,1-.1647-.046,1.71911,1.71911,0,0,1-.514-.36273,1.58155,1.58155,0,0,1-.40865-.672A1.68371,1.68371,0,0,1,2.491,8.78876a1.71373,1.71373,0,0,1,.46791-.32932" transform="translate(0)"/>
  <path d="M4.1979,12.664a.50921.50921,0,0,0-.132.00681A2.97209,2.97209,0,0,1,.63246,9.63268,3.7898,3.7898,0,0,1,1.0344,8.07079,10.58076,10.58076,0,0,1,2.38542,6.087l.244-.31622-.03954-.14506c-.16272-.51635-.27936-.93165-.36053-1.31647H0v8.40421H4.1979Z" transform="translate(0)"/>
  <path d="M2.59925,4.30923c.0701.31705.1704.6961.27382,1.02005l.02644.09226.046-.05281c.01981-.0329.07908-.11852.13842-.1976a7.61272,7.61272,0,0,0,.54465-.8619Z" transform="translate(0)"/>
  <path class="cls-1" d="M4.1979,12.71344v.35908a3.6309,3.6309,0,0,1-.26368,1.75312,1.56334,1.56334,0,0,1-.46128.58645,1.065,1.065,0,0,1-.67879.22431,1.26444,1.26444,0,0,1-.79085-.257,1.12935,1.12935,0,0,1-.25041-.25024l-.046-.05281.03291.01327a.773.773,0,0,0,.85011-.28365.80091.80091,0,0,0,.11862-.7446.78171.78171,0,0,0-.725-.60616.98428.98428,0,0,0-.83686.4282.95737.95737,0,0,0-.09243.791,1.61316,1.61316,0,0,0,.77768,1.05419,1.82262,1.82262,0,0,0,.883.27039,1.59039,1.59039,0,0,0,1.3972-.7644A2.45319,2.45319,0,0,0,4.514,13.98224a9.05491,9.05491,0,0,0,.03953-.94238v-.32643Z" transform="translate(0)"/>
  <path class="cls-1" d="M2.2293,4.30923h.36995c-.03261-.14747-.05869-.28157-.07549-.39041a3.14972,3.14972,0,0,1-.00645-.65888,2.75532,2.75532,0,0,1,.6128-1.44337,2.49035,2.49035,0,0,1,.3953-.3953,3.07334,3.07334,0,0,1,.26368-.19105.07577.07577,0,0,0,.01989.00636c.01309.02645.15152.29659.19105.38884a2.56835,2.56835,0,0,1,.112.41528,7.3205,7.3205,0,0,1,0,.75778,4.13322,4.13322,0,0,1-.48344,1.51075h.90355a3.31431,3.31431,0,0,0,.17279-1.53668A5.31249,5.31249,0,0,0,3.5055.11012C3.407.00426,3.35415-.022,3.28835.01735a.86685.86685,0,0,0-.13843.12534,3.6231,3.6231,0,0,0-1.061,2.19452,6.00119,6.00119,0,0,0-.01308.71187A7.22714,7.22714,0,0,0,2.2293,4.30923" transform="translate(0)"/>
</svg>
